<?xml version="1.0" encoding="UTF-8" standalone="no"?>
<!-- Created with Inkscape (http://www.inkscape.org/) -->

<svg
   version="1.1"
   id="svg1"
   width="400"
   height="400"
   viewBox="0 0 400 400"
   sodipodi:docname="logo_carre.svg"
   inkscape:version="1.3.2 (1:1.3.2+202311252150+091e20ef0f)"
   xmlns:inkscape="http://www.inkscape.org/namespaces/inkscape"
   xmlns:sodipodi="http://sodipodi.sourceforge.net/DTD/sodipodi-0.dtd"
   xmlns="http://www.w3.org/2000/svg"
   xmlns:svg="http://www.w3.org/2000/svg">
  <defs
     id="defs1" />
  <sodipodi:namedview
     id="namedview1"
     pagecolor="#ffffff"
     bordercolor="#000000"
     borderopacity="0.25"
     inkscape:showpageshadow="2"
     inkscape:pageopacity="0.0"
     inkscape:pagecheckerboard="0"
     inkscape:deskcolor="#d1d1d1"
     inkscape:zoom="1.8078663"
     inkscape:cx="167.04775"
     inkscape:cy="217.38334"
     inkscape:window-width="1852"
     inkscape:window-height="1016"
     inkscape:window-x="68"
     inkscape:window-y="27"
     inkscape:window-maximized="1"
     inkscape:current-layer="layer-MC0"
     inkscape:export-bgcolor="#ffffffff">
    <inkscape:page
       x="0"
       y="0"
       inkscape:label="1"
       id="page1"
       width="400"
       height="400"
       margin="18.708666 18.709333 18.708 18.708666"
       bleed="0"
       inkscape:export-filename="logo_carre.png"
       inkscape:export-xdpi="96"
       inkscape:export-ydpi="96" />
  </sodipodi:namedview>
  <g
     id="layer-MC0"
     inkscape:groupmode="layer"
     inkscape:label="Calque 1">
    <g
       inkscape:label="Calque 1"
       id="layer1-8"
       transform="matrix(1.8143681,0,0,1.8143681,14.771876,-41.100701)">
      <g
         id="g2-5-5"
         style="fill:#003500;fill-opacity:0.498205">
        <path
           style="fill:#003500;fill-opacity:0.498205"
           d="m 61.658682,238.21606 c -1.74185,-0.82048 -2.22476,-2.52272 -0.99097,-3.49322 1.01723,-0.80015 2.08029,-0.54127 3.25254,0.79206 0.51329,0.58382 1.0697,1.0615 1.23647,1.0615 0.69737,0 1.9166,-1.40575 2.35891,-2.71979 0.37692,-1.11974 0.46811,-2.34952 0.48169,-6.49543 0.0156,-4.76764 -0.0181,-5.13964 -0.49684,-5.4901 -1.19378,-0.87381 -4.3812,-0.0173 -4.3812,1.17725 0,0.27645 0.29766,0.69766 0.66146,0.93603 0.80513,0.52754 0.84022,1.18091 0.11309,2.10532 -0.42513,0.54046 -0.78054,0.69714 -1.5814,0.69714 -1.42078,0 -1.94729,-0.80709 -1.78704,-2.73939 0.2474,-2.98332 2.0886,-4.17817 6.71099,-4.3551 l 2.94429,-0.1127 0.61226,1.02391 c 1.48165,2.47781 7.51244,11.47494 7.69166,11.47494 0.10894,0 0.23842,-2.41101 0.28774,-5.35781 0.10084,-6.02603 0.32806,-6.92137 2.04702,-8.0663 1.49098,-0.99308 3.73118,-0.56085 3.73118,0.71991 0,0.56044 -1.25587,1.66437 -1.63023,1.433 -0.13482,-0.0833 -0.52144,0.0296 -0.85917,0.25085 -1.03007,0.67493 -1.21476,2.20464 -1.21476,10.06135 0,7.09891 -0.013,7.27747 -0.54213,7.44541 -1.15839,0.36766 -2.60557,-1.242 -6.90211,-7.67703 -1.45742,-2.18281 -2.75994,-4.00844 -2.89448,-4.05695 -0.13949,-0.0503 -0.24659,1.08674 -0.24921,2.64584 -0.005,3.18458 -0.52965,5.99206 -1.32854,7.11399 -1.27053,1.78429 -5.11115,2.64278 -7.27122,1.62532 z m 24.31486,-0.9472 c -1.57934,-0.71473 -2.14781,-2.47461 -1.3178,-4.07966 0.55783,-1.07874 1.17124,-1.52913 3.20208,-2.35111 1.01865,-0.4123 2.00092,-0.84469 2.18282,-0.96086 0.49358,-0.31523 0.39932,-1.62417 -0.16736,-2.32398 -0.43854,-0.54158 -0.58035,-0.57763 -1.18627,-0.30155 -0.52106,0.23741 -0.73028,0.57675 -0.86149,1.3973 -0.21154,1.32292 -0.68977,1.84198 -1.69708,1.84198 -1.50723,0 -1.77518,-1.83387 -0.45343,-3.1033 1.15536,-1.10964 2.9193,-1.77059 4.75588,-1.78204 1.31082,-0.008 1.61359,0.0896 2.24896,0.72636 0.72561,0.72719 0.73449,0.77683 0.75718,4.23334 0.0126,1.92363 0.0424,3.69314 0.0661,3.93223 0.0623,0.62708 0.83912,0.83595 1.35906,0.36542 0.58153,-0.52629 0.97934,-0.51002 1.29438,0.0529 0.36606,0.65412 -0.0472,1.26706 -1.38159,2.04905 -1.38882,0.8139 -1.79917,0.82909 -3.07201,0.11371 -0.93517,-0.52559 -1.03473,-0.53259 -1.81741,-0.12785 -1.19639,0.61868 -2.93535,0.76004 -3.91206,0.31803 z m 3.72392,-2.32243 c 0.61899,-0.28203 0.67391,-0.44373 0.67391,-1.98437 0,-0.92253 -0.0957,-1.67733 -0.21279,-1.67733 -0.11703,0 -0.75574,0.34434 -1.41935,0.76519 -1.4961,0.94879 -1.88911,2.01873 -1.00462,2.73495 0.67802,0.54903 1.04598,0.57931 1.96285,0.16156 z m 9.69482,2.00735 c -1.16298,-0.97858 -1.40549,-2.11908 -1.30417,-6.13331 l 0.0885,-3.50523 -1.12449,3.7e-4 c -1.4436,4.8e-4 -1.49515,-0.55146 -0.13229,-1.41652 1.35888,-0.86254 2.40246,-1.95569 3.01701,-3.16029 0.396018,-0.77627 0.651958,-0.99296 1.097878,-0.92951 0.53779,0.0765 0.57572,0.20694 0.50486,1.73638 l -0.0766,1.65365 h 2.12713 c 1.16992,0 2.12713,0.0418 2.12713,0.0928 0,0.051 -0.12677,0.45645 -0.2817,0.9009 -0.26696,0.76579 -0.37607,0.81758 -2.08394,0.98909 l -1.80223,0.18099 -0.16502,1.20399 c -0.31879,2.32582 -0.19141,5.47264 0.24685,6.09835 0.51595,0.73661 1.42495,0.75202 2.33077,0.0395 0.84033,-0.66101 1.59356,-0.57741 1.70341,0.18907 0.062,0.43233 -0.29426,0.81138 -1.5515,1.65094 -2.02821,1.35439 -3.45136,1.47761 -4.721558,0.40881 z m 10.587378,0.31173 c -1.11252,-0.61662 -1.33261,-1.39101 -1.34267,-4.72401 -0.01,-3.1923 -0.0872,-3.3952 -1.06469,-2.78475 -0.8213,0.51291 -1.23183,-0.0825 -0.65932,-0.95629 1.22784,-1.87393 3.99207,-2.9318 4.61575,-1.76645 0.15064,0.28147 0.27389,2.0157 0.27389,3.85385 0,4.49669 0.26377,4.91671 2.40245,3.82564 1.27565,-0.65079 1.4431,-1.04803 1.68587,-3.99936 0.17861,-2.17145 0.15979,-2.29947 -0.36246,-2.46523 -0.30297,-0.0962 -0.55086,-0.38727 -0.55086,-0.6469 0,-0.35683 0.41944,-0.58561 1.71815,-0.93715 2.5919,-0.7016 2.52806,-0.80107 2.33624,3.64022 -0.19243,4.45522 -0.0742,5.21299 0.81304,5.21299 0.34322,0 0.77224,-0.1786 0.9534,-0.39688 0.42367,-0.51049 1.03199,-0.50882 1.22853,0.003 0.36085,0.94036 -1.90686,2.22674 -4.09315,2.32187 -1.48762,0.0647 -2.16246,-0.35514 -2.16246,-1.34542 v -0.67518 l -0.59531,0.55886 c -0.82566,0.77511 -2.81828,1.63913 -3.77032,1.63486 -0.43656,-0.002 -1.0783,-0.16128 -1.42608,-0.35404 z m 12.67088,-0.25341 c 0,-0.20616 0.30098,-0.57205 0.66885,-0.81309 0.66812,-0.43777 0.66877,-0.44221 0.59531,-4.06533 -0.0622,-3.06726 -0.13479,-3.61199 -0.47041,-3.52933 -0.91484,0.2253 -1.19466,0.13679 -1.2716,-0.40218 -0.0658,-0.46109 0.20076,-0.70243 1.40539,-1.27231 0.89905,-0.42532 1.81998,-0.671 2.33006,-0.6216 0.77293,0.0748 0.8505,0.168 0.92796,1.11423 l 0.0845,1.03255 1.11156,-1.21071 c 1.21729,-1.32588 2.25062,-1.73986 3.22953,-1.29384 1.28288,0.58452 1.10138,2.11051 -0.48813,4.10394 -0.70079,0.87887 -1.50846,0.73291 -1.50846,-0.27261 0,-0.93534 -0.76719,-0.70266 -1.43105,0.43401 -0.39958,0.68418 -0.5605,1.52758 -0.64051,3.35701 l -0.10686,2.44326 0.89077,0.23082 c 0.49076,0.12717 0.89077,0.40149 0.89077,0.61088 0,0.30456 -0.61756,0.39487 -3.10885,0.4546 -2.5409,0.0609 -3.10885,0.006 -3.10885,-0.3003 z m 12.93756,-0.50398 c -2.48708,-1.6528 -2.78812,-5.94812 -0.61642,-8.79537 1.26133,-1.65368 3.3386,-2.51251 5.12701,-2.11971 0.94033,0.20653 2.3956,1.33501 2.3956,1.85766 0,0.19375 -1.36922,1.38583 -3.04271,2.64907 -1.67349,1.26324 -3.04271,2.41559 -3.04271,2.56077 0,0.51492 1.63862,1.7848 2.51525,1.94926 1.4195,0.2663 2.63875,-0.30768 4.07388,-1.91786 1.87662,-2.10552 2.61704,-1.41532 1.06923,0.99672 -1.46417,2.28172 -3.41975,3.41691 -5.8863,3.41691 -1.31652,0 -1.89406,-0.13308 -2.59283,-0.59745 z m 2.47442,-7.1421 c 0.5457,-0.42437 0.99218,-0.99168 0.99218,-1.26069 0,-0.53009 -0.75164,-0.89043 -1.36579,-0.65476 -0.55524,0.21307 -1.28004,1.55462 -1.28004,2.36925 0,0.78493 0.0939,0.75916 1.65365,-0.4538 z M 35.860592,219.56998 c -3.06741,-1.04579 -4.28813,-2.38244 -4.44644,-4.86875 -0.12556,-1.97186 0.30117,-2.8356 1.687,-3.41464 1.81575,-0.75866 3.59689,-0.19012 4.2421,1.35409 0.52551,1.25774 0.47454,1.7563 -0.29562,2.89118 -0.54188,0.79852 -0.6095,1.0646 -0.34999,1.37729 1.06117,1.27864 3.88462,1.54089 5.80867,0.53953 0.82856,-0.43122 1.33841,-0.94526 1.76141,-1.77586 1.54566,-3.03508 -0.10249,-5.59438 -5.20043,-8.07543 -6.54308,-3.18437 -8.32142,-5.02001 -8.32358,-8.59182 -10e-4,-2.15384 0.44128,-3.5236 1.60247,-4.95946 2.47533,-3.06083 7.96439,-4.19279 11.36268,-2.34321 3.50579,1.90809 3.4135,6.74991 -0.13775,7.22623 -2.12532,0.28507 -3.73516,-0.99109 -3.73516,-2.96095 0,-0.77792 0.15962,-1.25839 0.52916,-1.59282 0.80054,-0.72448 0.64884,-0.92604 -0.6969,-0.92604 -3.32168,0 -4.93527,1.40927 -4.46764,3.90194 0.30132,1.60618 1.7823,2.74292 6.63737,5.09457 6.28742,3.04544 7.74653,4.57233 7.99431,8.3657 0.16269,2.49068 -0.39706,4.16411 -1.98284,5.92788 -2.73773,3.04501 -7.832,4.24778 -11.98882,2.83057 z m 124.889948,-2.2041 c -1.78371,-0.47838 -3.28166,-1.48227 -4.30063,-2.88219 -1.40958,-1.93656 -1.61994,-2.68461 -1.63683,-5.82083 -0.0152,-2.81912 0.0144,-2.97267 0.94391,-4.89479 1.2875,-2.66249 2.53558,-4.03216 4.60057,-5.04875 1.4406,-0.7092 2.01881,-0.84233 3.77113,-0.86825 1.87042,-0.0277 2.24561,0.0583 3.89755,0.89267 2.49554,1.26051 2.60039,1.51591 1.16362,2.83445 -2.43263,2.23243 -4.95299,4.14705 -7.31484,5.55678 -1.73434,1.03519 -2.4474,1.6093 -2.4474,1.9705 0,0.69667 0.68305,1.98514 1.75242,3.3057 2.34063,2.8904 6.90471,2.44059 9.98366,-0.98394 1.22697,-1.36468 1.84524,-1.54915 2.18908,-0.65312 0.28459,0.74164 -0.15507,1.6697 -1.47539,3.11434 -1.52761,1.67145 -3.73717,2.93242 -6.12439,3.49513 -2.07982,0.49025 -3.12225,0.48656 -5.00246,-0.0177 z m 1.78593,-13.58878 c 1.05503,-0.8922 1.91823,-1.77224 1.91823,-1.95566 0,-0.74999 -0.73901,-1.33421 -1.68774,-1.33421 -1.69549,0 -3.60936,2.62312 -3.60523,4.94128 0.001,0.71726 0.0183,0.72549 0.72891,0.35257 0.40018,-0.21 1.59081,-1.11179 2.64583,-2.00398 z m -52.78437,11.4734 c -0.63545,-0.28714 -0.36276,-1.19756 0.45064,-1.50459 0.69296,-0.26156 0.80465,-0.46105 0.98706,-1.76295 0.11313,-0.80741 0.20799,-3.13489 0.21081,-5.17219 l 0.005,-3.70416 -1.05833,-0.13229 c -0.90826,-0.11354 -1.06987,-0.23197 -1.13967,-0.83521 -0.073,-0.63069 0.0629,-0.7562 1.32292,-1.22162 2.10258,-0.77666 4.06032,-1.22163 4.5493,-1.03399 0.61632,0.23651 1.02337,1.46428 0.87133,2.62816 l -0.12967,0.99256 1.23165,-1.08538 c 2.16016,-1.90362 3.31186,-2.43268 5.58166,-2.56408 1.84565,-0.10684 2.09669,-0.0605 2.75673,0.50882 1.00547,0.86728 1.22923,2.11297 1.19382,6.64593 -0.0307,3.92998 0.12804,4.69606 0.97307,4.69606 0.18991,0 0.64892,-0.38696 1.02001,-0.8599 0.56081,-0.71474 0.75386,-0.81045 1.14365,-0.56695 0.7036,0.43952 0.68706,0.9243 -0.0713,2.09055 -2.12211,3.26346 -5.77341,3.61316 -7.08196,0.67827 -0.43276,-0.97063 -0.56949,-1.98845 -0.6919,-5.15056 -0.17712,-4.57578 -0.31281,-4.83913 -2.03698,-3.95338 -1.36694,0.70223 -2.54453,2.69091 -3.57785,6.04217 -1.03429,3.35442 -1.59198,4.44422 -2.4817,4.84961 -0.79831,0.36373 -3.52119,0.64432 -4.02841,0.41512 z m -51.659898,-0.35306 c -0.50933,-0.10277 -1.28941,-0.37759 -1.73352,-0.61072 -1.17686,-0.61776 -2.90502,-2.59867 -3.30994,-3.79404 -0.47621,-1.40583 -0.42435,-4.4166 0.10739,-6.23431 0.48674,-1.66386 2.01606,-3.87284 3.37577,-4.876 1.70345,-1.25677 5.51162,-1.87848 6.9355,-1.13227 1.05237,0.55151 2.5623,1.85267 2.5623,2.20803 0,0.19236 -1.96453,1.85865 -4.36563,3.70285 -2.68869,2.06509 -4.36562,3.53002 -4.36562,3.81371 0,0.7436 1.77776,2.60698 2.81322,2.94871 1.45756,0.48104 3.39255,0.18875 4.67986,-0.7069 0.60823,-0.42319 1.68159,-1.63048 2.38524,-2.68289 0.70365,-1.0524 1.45034,-1.91346 1.65932,-1.91346 0.20897,0 0.51168,0.28911 0.67268,0.64248 0.67751,1.48695 -2.59515,6.16379 -5.26696,7.52685 -1.23569,0.63041 -3.85636,1.37189 -4.68385,1.32524 -0.29684,-0.0167 -0.95644,-0.11451 -1.46576,-0.21728 z m 1.40311,-11.73584 c 1.08639,-0.90089 1.25918,-1.17335 1.19062,-1.87733 -0.0731,-0.75091 -0.158,-0.81984 -0.96294,-0.782 -0.50146,0.0236 -1.15278,0.29517 -1.50789,0.62878 -0.63258,0.59428 -1.44582,2.56763 -1.44582,3.50833 0,0.49617 0.0231,0.49757 0.72761,0.0443 0.40018,-0.25751 1.29947,-0.94243 1.99842,-1.52203 z m 17.3519,11.61853 c -2.69859,-0.96437 -3.80879,-2.79486 -3.79042,-6.24956 0.0146,-2.74192 0.74949,-4.57658 2.64489,-6.60292 2.82663,-3.0219 7.35762,-3.79481 9.22641,-1.57387 1.00608,1.19566 0.9255,2.42873 -0.23454,3.58877 -0.80106,0.80105 -1.05616,0.9051 -2.04346,0.83344 -1.03558,-0.0752 -1.15041,-0.15785 -1.39978,-1.00792 -0.39836,-1.35799 -0.61398,-1.5875 -1.49139,-1.5875 -0.65627,0 -0.85853,0.16008 -1.18279,0.93615 -0.52608,1.25908 -0.95193,4.75346 -0.74758,6.13435 0.23558,1.59194 1.1723,2.4545 2.66552,2.4545 1.64367,0 2.71028,-0.5249 4.60368,-2.26555 1.54333,-1.41884 1.67417,-1.48603 2.00708,-1.03076 0.52363,0.71611 0.4606,0.94759 -0.69889,2.5668 -2.43731,3.40366 -6.33671,4.95549 -9.55873,3.80407 z m 19.2127,0.20114 c -0.29105,-0.0721 -1.15817,-0.37777 -1.92695,-0.67931 -3.34947,-1.31379 -4.7759,-5.19869 -3.50099,-9.53502 0.65744,-2.23615 3.25509,-4.66574 5.77624,-5.40254 2.78955,-0.81523 6.400888,0.25885 8.197108,2.43798 1.54864,1.87877 2.0247,4.81107 1.22065,7.5186 -0.57508,1.93652 -2.80536,4.18524 -4.94483,4.98572 -1.561658,0.5843 -3.877408,0.9083 -4.821228,0.67457 z m 3.66511,-3.24625 c 0.899708,-0.78034 1.229678,-1.80154 1.229678,-3.80564 0,-4.19294 -1.801548,-6.45909 -4.361198,-5.48591 -1.37897,0.52428 -1.83814,3.25245 -1.08571,6.45074 0.71914,3.05678 2.54789,4.28867 4.21723,2.84081 z m 36.723328,2.96127 c -0.4876,-0.24024 -1.19562,-0.90385 -1.57337,-1.47467 -0.57561,-0.8698 -0.70484,-1.41459 -0.79806,-3.36441 -0.267,-5.58456 2.55422,-9.21328 7.842,-10.08653 l 1.85159,-0.30579 0.18152,-1.88331 c 0.23441,-2.43193 0.82463,-3.74174 2.29308,-5.08873 3.09764,-2.84143 7.62626,-2.91171 7.62626,-0.11835 0,2.06573 -2.20755,3.41081 -4.11348,2.50639 -0.51289,-0.24338 -0.97126,-0.39716 -1.0186,-0.34173 -0.0473,0.0554 -0.16112,3.76299 -0.25283,8.23901 -0.16167,7.89013 -0.15069,8.1543 0.36012,8.66511 0.64705,0.64704 1.27906,0.6643 2.52738,0.069 0.92455,-0.44089 0.9739,-0.43901 1.33189,0.0506 0.20447,0.27963 0.37177,0.61388 0.37177,0.74278 0,0.54509 -1.57162,1.7372 -2.98974,2.26779 -2.67844,1.00213 -5.07441,0.59474 -5.72389,-0.97325 l -0.33812,-0.81629 -0.99379,0.79863 c -1.82356,1.46545 -4.83572,1.97501 -6.58373,1.11376 z m 5.96212,-4.0468 1.37139,-0.78652 0.0838,-2.58443 c 0.0461,-1.42144 0.0469,-3.1647 0.002,-3.87392 l -0.082,-1.28948 -1.07451,0.14412 c -2.1451,0.28772 -3.52476,2.46566 -3.84017,6.06212 -0.27375,3.12143 0.85821,3.86596 3.53961,2.32811 z M 85.079912,193.81331 c -1.2e-4,-0.89121 0.18351,-2.14111 0.40806,-2.77755 0.22455,-0.63645 1.88004,-3.36009 3.67885,-6.05254 3.56573,-5.33714 4.73555,-7.60844 5.79187,-11.24536 0.76124,-2.62097 1.51157,-7.77929 1.47408,-10.13387 -0.021,-1.32085 -0.0824,-1.13054 -0.49475,1.53491 -0.86269,5.57616 -2.36447,10.36641 -4.59315,14.65077 -2.359,4.53489 -5.16587,6.77187 -9.70475,7.73435 -2.5503,0.54079 -4.85962,0.37444 -9.6573,-0.69567 -5.89715,-1.31535 -10.59232,-1.34591 -14.2875,-0.093 l -1.05833,0.35885 0.66146,-0.56614 c 0.87592,-0.74971 3.47287,-1.92443 5.4335,-2.45783 0.99932,-0.27187 3.61542,-0.52537 7.13421,-0.6913 5.99154,-0.28254 8.63938,-0.66858 11.82483,-1.724 5.22721,-1.73192 8.77335,-5.67636 10.63431,-11.82878 1.60689,-5.31241 2.79876,-14.09531 2.82196,-20.79492 l 0.0134,-3.86839 1.21417,2.38125 c 1.84836,3.62502 3.15492,7.08206 4.157368,11.00006 1.10976,4.3374 2.24826,10.7066 2.45576,13.73848 0.0847,1.23693 0.26446,2.42755 0.39956,2.64583 0.42699,0.68987 0.001,-8.10175 -0.57603,-11.8901 -0.69125,-4.53763 -1.42659,-7.6722 -2.57967,-10.99636 -2.710928,-7.81527 -6.343818,-12.65681 -12.546738,-16.72102 -3.19328,-2.09227 -5.5976,-3.21076 -9.35225,-4.35068 -2.75942,-0.83777 -3.12319,-0.88374 -7.01146,-0.88616 -3.459528,-0.33742 -6.553097,0.69197 -9.64016,2.05752 l -1.07531,1.82349 c -0.913827,2.75918 -0.563317,3.24056 -2.51369,5.35377 l 1.65678,-4.87171 -1.22689,-3.36247 c -0.0475,-0.0475 -0.9007,0.29482 -1.89608,0.76061 -1.08191,0.50629 -2.39599,0.89552 -3.26731,0.96777 -1.22291,0.10142 -1.58903,0.26033 -2.27461,0.98725 -1.6798,1.7811 -3.94193,1.48589 -6.55465,-0.85539 -0.90793,-0.81361 -1.97771,-1.72343 -2.37728,-2.02183 l -0.72649,-0.54256 2.04941,-0.61619 c 4.22759,-1.2711 4.59744,-1.30715 6.04592,-0.58928 1.01649,0.50378 1.42928,0.91228 1.91854,1.89865 0.45637,0.92008 0.77535,1.25528 1.19062,1.25119 1.05974,-0.0104 4.1525,-1.26899 6.7298,-2.73862 3.33861,-1.90375 4.6294,-2.4695 7.99265,-3.50315 2.06797,-0.63556 2.64286,-0.90306 2.24896,-1.04644 -0.29104,-0.10595 -2.25557,-0.90171 -4.36562,-1.76837 -2.91226,-1.19615 -4.26157,-1.60924 -5.6011,-1.71478 -2.53887,-0.20003 -2.97885,-0.0318 -3.37496,1.29025 -0.73247,2.44479 -2.75429,3.40592 -6.10519,2.90228 -1.09141,-0.16404 -2.38763,-0.29746 -2.88048,-0.2965 l -0.8961,0.002 1.16068,-1.27364 c 0.63838,-0.7005 1.61311,-1.83161 2.16607,-2.51357 0.55295,-0.68196 1.37634,-1.43177 1.82975,-1.66623 1.13644,-0.58768 3.19043,-0.37557 4.03359,0.41654 0.56171,0.5277 0.80881,0.57594 2.17417,0.42442 1.41907,-0.15747 2.8689,0.0782 4.71544,0.7666 0.29104,0.10849 -0.12445,-0.26172 -0.92333,-0.8227 -2.65437,-1.86395 -6.84819,-6.22837 -7.90814,-8.22986 -0.1734,-0.32742 -0.40038,-0.58891 -0.5044,-0.58108 l -0.0037,-1.09969 c 0.0535,-0.16042 1.0234,0.72848 2.15539,1.97534 1.94847,2.14621 4.06152,4.05292 4.25368,3.83834 0.0483,-0.0539 -0.0831,-1.05055 -0.2919,-2.21471 -0.20883,-1.16417 -0.31412,-2.6338 -0.23397,-3.26584 l 0.68231,0.50584 c -0.0117,3.49895 1.95266,6.07297 6.13535,8.03941 3.28919,1.54637 6.14451,2.4633 12.7783,4.1035 7.89796,1.95276 11.62394,3.41069 15.705,6.14514 1.07066,0.71738 2.00611,1.24487 2.07878,1.1722 0.0727,-0.0727 -0.0653,-1.89542 -0.30654,-4.05056 -1.38672,-12.38708 -5.03232,-22.54062 -11.00169,-30.641359 -0.9651,-1.30969 -2.43536,-3.00249 -3.26723,-3.76179 -1.96578,-1.79425 -5.07045,-3.346079 -6.73555,-3.366679 l -1.23527,-0.0153 -0.1446,1.190629 c -0.29042,2.39121 -1.52219,3.21648 -5.854,3.92207 l -2.82361,0.45993 0.40456,-0.93423 c 0.22251,-0.51383 0.65969,-1.63303 0.97152,-2.48712 0.31183,-0.85408 0.98665,-2.029839 1.4996,-2.612799 0.81255,-0.923463 1.11006,-1.076973 2.3108,-1.192353 1.03782,-0.0997 1.55385,-0.0173 2.08954,0.33369 0.39126,0.25636 1.36201,0.511303 2.15721,0.566543 0.79521,0.0552 2.1679,0.39208 3.05042,0.74854 0.88251,0.35647 1.64077,0.611929 1.685,0.567689 0.16311,-0.16311 -2.53349,-2.271552 -4.76821,-3.728222 -3.63336,-2.368343 -8.34593,-4.374995 -10.27456,-4.374995 -0.89539,0 -2.60679,0.779096 -2.60679,1.186712 0,0.162225 0.14468,0.439638 0.32152,0.616474 0.17683,0.176835 0.32566,1.005666 0.33073,1.841846 0.008,1.287728 -0.12489,1.722264 -0.86729,2.840253 -0.48207,0.725963 -1.01278,1.825942 -1.17935,2.444402 -0.32457,1.20507 -0.59485,1.41362 -0.83824,0.64677 -0.0834,-0.26273 -0.67665,-1.27708 -1.31836,-2.254099 -1.43314,-2.182003 -1.71166,-3.491113 -1.03595,-4.869204 0.64858,-1.322739 2.07818,-2.27306 3.16,-2.100596 0.53752,0.08569 1.08031,-0.03839 1.56831,-0.358513 l 0.74629,-0.48956 -0.64227,-0.132456 c -0.35325,-0.07285 -1.15697,-0.202281 -1.78606,-0.287624 -0.62908,-0.08534 -2.20107,-0.49517 -3.49329,-0.910728 l 7.51814,0.36361 1.55813,0.153064 -0.95136,-1.053045 c -1.21677,-1.346812 -2.1398,-3.132032 -1.83263,-3.544448 l -0.53738,-0.01722 1.16554,-0.0092 0.48187,1.048532 c 0.26503,0.576693 1.12154,1.67093 1.90334,2.431637 1.10002,1.07033 1.84057,1.525647 3.2747,2.013429 4.12762,1.403892 8.71594,3.774209 12.56199,6.48949 1.70257,1.202003 7.33719,6.043942 8.30924,7.140292 0.80298,0.90566 0.97318,0.66367 0.42791,-0.60838 -1.68158,-3.92297 -2.24014,-7.82042 -2.04945,-14.300395 0.14006,-4.759357 0.14155,-4.768841 1.7736,-11.245666 1.46068,-5.796738 1.64912,-6.849946 1.78184,-9.958665 l 0.14842,-3.476372 0.24104,-0.105421 c 0.4796,1.022519 0.52652,1.558184 0.44158,5.040792 l -0.095,3.896695 1.1433,-1.865792 c 0.62882,-1.026186 1.72,-2.461105 2.42486,-3.188709 1.17938,-1.217448 1.31683,-1.498913 1.72398,-3.530476 0.72519,-3.618528 1.77384,-6.433196 3.095878,-8.309629 0.60743,-0.862152 0.91019,-0.916375 1.13644,-0.203528 0.11123,0.350459 -0.10792,0.922685 -0.66151,1.727315 -1.28583,1.868878 -3.712098,7.881367 -3.333308,8.260164 0.091,0.09102 0.49168,-0.13572 0.89034,-0.50387 1.851698,-1.709961 4.719198,-3.235673 8.000888,-4.257021 1.44544,-0.449861 2.75386,-0.561549 8.20208,-0.70014 5.84827,-0.148766 6.60261,-0.220064 7.71239,-0.728947 l 2.02919,-0.424938 c -1.01103,1.224982 -5.39549,2.163962 -10.27074,2.199595 -2.26011,0.01652 -2.68429,0.07907 -2.27488,0.335475 0.27679,0.173343 0.74474,0.58306 1.0399,0.910482 0.32167,0.356833 0.84367,0.595313 1.30304,0.595313 0.49429,0 1.04098,0.274593 1.53979,0.773397 1.01296,1.012965 1.0298,2.30374 0.0756,5.797229 -0.14123,0.517084 -3.50574,-2.523226 -3.71501,-3.357042 -0.0984,-0.391836 0.007,-1.181167 0.24758,-1.849279 0.40921,-1.137949 0.40449,-1.180326 -0.19857,-1.783383 -0.91814,-0.918138 -1.8676,-1.047576 -4.18095,-0.569978 -4.16001,0.858848 -8.05859,3.499044 -11.039238,7.475988 -3.60632,4.811752 -5.13975,9.367669 -5.46637,16.240987 -0.3604,7.583827 1.62157,16.029869 6.22627,26.532957 1.926448,4.39414 6.094688,13.03818 6.323478,13.11356 0.1086,0.0358 0.41601,-0.46637 0.68313,-1.11588 0.74936,-1.8221 3.96226,-7.0998 5.78034,-9.49514 0.89922,-1.18472 2.71472,-3.38037 4.03446,-4.87923 1.31974,-1.498868 3.13176,-3.558838 4.02671,-4.577718 5.53489,-6.30139 8.3394,-12.073655 8.74232,-17.993556 l 0.15503,-2.277714 -1.26565,-0.43125 2.6987,-0.314087 c -0.61393,0.402258 -0.71248,0.647055 -0.71248,1.769747 0,2.480255 -0.56358,6.339518 -1.31845,9.028496 -0.41698,1.485325 -0.72621,2.732515 -0.68718,2.771545 0.0867,0.0867 1.16444,-1.62996 3.86445,-6.155031 2.761,-4.627286 4.69316,-7.16033 6.77585,-8.883081 l 0.82651,-0.683672 -0.85131,2.051567 c -1.40807,1.558563 -2.47646,3.327295 -4.73895,7.845359 -3.50478,6.998877 -6.11801,11.119267 -9.24674,14.579787 -0.70291,0.77744 -1.22606,1.46548 -1.16257,1.52898 0.0635,0.0635 0.95384,-0.36792 1.97853,-0.9587 2.42594,-1.39866 4.37933,-2.17987 7.61373,-3.04495 2.18244,-0.58371 3.45214,-0.73493 7.39717,-0.88095 l 4.7625,-0.17628 1.98438,-0.95121 c 3.12518,-1.49806 5.53178,-3.96438 4.49414,-4.605679 -0.5161,-0.31896 -1.31914,-2.233464 -1.31914,-3.144899 0,-1.342714 0.39364,-2.188146 1.99275,-4.279831 0.78664,-1.028949 1.66207,-2.388601 1.9454,-3.021448 l 0.51516,-1.150631 0.4342,1.037073 c 1.24546,2.974715 2.04755,5.651305 2.05695,6.864098 0.0175,2.262608 -1.30549,4.027648 -3.21055,4.283168 -0.87456,0.117299 -1.26509,0.370069 -2.0481,1.325629 -1.22503,1.49499 -3.83412,3.40572 -5.42365,3.97192 l -1.2243,0.43611 2.54721,0.82861 c 1.40097,0.45574 3.37558,1.16102 4.38802,1.56729 l 3.37075,2.488818 c -0.89549,-0.886628 -1.50907,-1.222888 -2.90864,-1.594068 -3.52346,-0.93444 -7.37296,-1.55927 -10.49572,-1.7036 -2.83684,-0.13111 -3.46446,-0.0745 -5.75227,0.51934 -3.32431,0.86282 -6.34594,2.29438 -10.05577,4.764128 -3.7576,2.50154 -6.19521,4.84817 -8.65194,8.32899 -3.17618,4.50018 -5.19246,9.58566 -5.94697,14.99948 -0.22115,1.58687 -0.37404,2.91327 -0.33974,2.94757 0.0343,0.0343 0.63375,-0.64352 1.33212,-1.50627 2.37843,-2.93827 7.08038,-5.92575 11.82013,-7.51017 1.81392,-0.60636 4.95639,-1.30117 8.99583,-1.98901 3.41445,-0.58142 6.86293,-1.25314 7.6633,-1.49271 4.72195,-1.41343 7.87907,-4.60417 8.8731,-8.96759 0.23107,-1.01428 0.4017,-2.32397 0.37918,-2.91041 -0.0573,-1.49193 -0.0315,-1.60865 0.28509,-1.29203 0.15514,0.15514 0.27831,1.42947 0.28004,2.89719 0.006,4.74533 -1.52625,7.71456 -5.83014,11.30084 -0.64466,0.53717 -1.08582,0.97667 -0.98036,0.97667 0.10546,0 1.52587,-0.60615 3.15648,-1.347 4.47699,-2.03409 5.03127,-2.24296 5.13404,-1.93466 l -3.75681,2.15187 c -6.2312,2.40482 -8.05546,3.0486 -9.525,3.3614 l -1.5875,0.33791 1.98438,0.19246 c 2.57436,0.24968 4.79979,0.81808 6.42252,1.64038 l 1.30093,0.65923 -0.57256,0.69844 c -0.004,-0.10619 -0.46535,-0.42682 -1.02538,-0.71253 -2.76407,-1.41012 -9.70745,-2.02186 -13.91439,-1.22591 -8.25953,1.56269 -14.89985,7.22421 -17.52007,14.93755 -1.06122,3.12401 -1.08822,3.52945 -0.1572,2.3603 1.58418,-1.98938 3.40375,-3.23473 5.53876,-3.79082 1.85822,-0.48401 2.46489,-0.49806 2.46489,-0.0571 l -1.53607,1.06917 c -2.98773,0.30836 -6.9014,2.93091 -7.50102,5.02643 -0.50607,1.76861 -0.42597,11.26487 0.13208,15.65886 0.57441,4.52284 0.78097,5.67116 1.80849,10.05416 2.08706,8.90253 6.21119,13.32041 14.90172,15.96316 3.17344,0.96502 4.67051,1.2594 8.33438,1.63885 3.0249,0.31328 4.49897,0.67384 6.38602,1.56204 1.27419,0.59975 3.40356,2.27021 3.40356,2.67006 0,0.12613 -0.62507,-0.0526 -1.38906,-0.39726 -2.13871,-0.96475 -5.02244,-1.28662 -9.59115,-1.07051 -2.18281,0.10325 -5.12961,0.1743 -6.54843,0.15791 -1.41883,-0.0164 -2.57969,0.0224 -2.57969,0.0861 0,0.0638 0.98226,0.43965 2.18281,0.83527 2.70661,0.89191 3.37544,1.22672 4.6059,2.30566 1.02853,0.90187 2.47171,2.74933 2.47171,3.16412 0,0.13497 -0.62508,-0.30376 -1.38907,-0.97496 -2.66355,-2.34007 -4.90346,-3.01219 -12.41802,-3.72618 -5.36922,-0.51016 -6.61395,-0.8292 -10.30755,-2.64195 -1.62314,-0.79661 -3.20144,-1.44576 -3.50733,-1.44257 -0.9268,0.01 -2.65291,0.92754 -3.38864,1.8019 -0.89492,1.06356 -1.34651,2.45563 -1.22158,3.76564 0.0546,0.57268 0.0197,1.04124 -0.0775,1.04124 -0.52518,0 -2.90092,-2.55906 -3.60891,-3.88738 -1.058548,-1.98605 -1.327308,-3.803 -1.499238,-10.13554 -0.18084,-6.6611 -0.62748,-8.42138 -0.6594,-2.59883 -0.0365,6.65255 -0.66725,10.00983 -2.21103,11.76809 -0.88807,1.01146 -2.21887,1.74567 -5.21173,2.87533 -2.25004,0.84928 -4.00517,2.38654 -4.97744,4.35958 l -0.58671,1.19062 z m 46.831038,-9.09368 c -5.24708,-0.80925 -8.66498,-1.83714 -11.4732,-3.45042 -2.45778,-1.41197 -1.67334,-0.55753 0.99918,1.08833 3.19756,1.96921 6.69821,2.80761 11.79694,2.82537 1.60615,0.006 1.51873,-0.025 -1.32292,-0.46328 z m -19.96673,-11.75352 c -0.35675,-1.85733 -1.01478,-5.89632 -1.46229,-8.97553 -1.97381,-13.58146 -4.25186,-19.78847 -9.1973,-25.05986 -2.979578,-3.17595 -8.768708,-6.86955 -13.054968,-8.32936 -2.58894,-0.88174 -6.75229,-1.71837 -8.3509,-1.67812 l -1.28135,0.0323 1.5772,0.22978 c 6.44203,0.93853 14.32053,5.1032 19.08819,10.09026 5.378028,5.62552 6.990668,9.47965 9.889548,23.63548 1.40742,6.87276 3.11475,13.75783 3.35262,13.51997 0.0483,-0.0483 -0.20399,-1.60755 -0.56075,-3.46489 z m -2.54729,-38.34231 c 0.60637,-1.09847 1.62196,-2.70288 2.25688,-3.56535 1.87888,-2.55228 6.23623,-6.0643 10.20298,-8.22359 2.38211,-1.2967 2.30146,-1.3667 -0.30303,-0.26301 -3.79884,1.60983 -7.11195,3.83625 -9.56889,6.43033 -2.40543,2.53971 -3.55728,4.69652 -4.79595,8.98038 -0.95531,3.30385 -0.81922,3.93777 0.22698,1.0573 0.4832,-1.33036 1.37466,-3.31759 1.98103,-4.41606 z m -2.4834,-10.62761 c 2.29493,-5.34932 5.30256,-10.45359 8.65259,-14.68437 l 1.57127,-1.98437 -2.23484,2.30995 c -3.83713,3.96609 -7.22092,9.2521 -8.93758,13.96191 -0.81586,2.23839 -2.62902,8.97514 -2.62902,9.76807 0,0.22883 0.5751,-1.2503 1.278,-3.28695 0.7029,-2.03664 1.73771,-4.77455 2.29958,-6.08424 z m -6.50845,-7.96948 c -1.806738,-5.66208 -4.094898,-10.36236 -6.899818,-14.17342 -1.70305,-2.313949 -7.72348,-8.487789 -9.74848,-9.996889 -0.79201,-0.59023 -0.25304,0.0794 1.60986,2.0002 5.10625,5.26492 8.99918,10.739779 12.13789,17.070219 1.1366,2.29242 2.39088,5.0168 2.787288,6.05418 0.39641,1.03739 0.77172,1.83517 0.83403,1.77286 0.0623,-0.0623 -0.26203,-1.28953 -0.72077,-2.72715 z m 1.9,-6.9996 c -1.82343,-4.07804 -2.24988,-5.71913 -2.26364,-8.71113 -0.0111,-2.416779 0.0644,-2.908639 0.58022,-3.781509 l 0.593,-1.00339 0.38205,0.70054 c 0.0905,0.3606 0.0263,0.91391 -0.14262,1.22958 -0.6071,1.13439 -0.34456,5.364349 0.55369,8.920809 0.45673,1.80834 0.95206,3.51517 1.10073,3.79297 0.14867,0.27779 0.21828,0.5571 0.15469,0.62069 -0.0636,0.0636 -0.49475,-0.73225 -0.95812,-1.76856 z M 127.9422,94.886351 c 2.23298,-1.25617 4.9124,-2.9548 6.10819,-3.8723 0.91958,-0.70557 0.94514,-0.7723 0.82959,-2.165679 -0.16029,-1.932942 0.27664,-3.10292 1.62187,-4.342911 0.90915,-0.838029 1.55211,-1.146268 3.35993,-1.610786 1.2296,-0.315944 2.87117,-0.761501 3.64794,-0.990128 0.77677,-0.228626 1.46292,-0.365079 1.52477,-0.303229 0.16655,0.166547 -1.59252,5.470713 -2.21739,6.686151 -1.34749,2.621032 -3.51071,3.564752 -6.08735,2.655662 -0.99945,-0.35262 -1.10001,-0.34199 -1.55462,0.16446 -0.85556,0.95312 -3.46834,2.58802 -5.57999,3.49159 -2.99408,1.28116 -3.61011,1.38819 -1.65294,0.28717 z M 103.68129,68.706827 c -1.06271,-0.462156 -3.17972,-2.394897 -3.40676,-3.110214 -0.16051,-0.505741 -0.329948,-0.531389 -2.722058,-0.412054 -2.4254,0.120996 -2.50534,0.108225 -1.62486,-0.259578 0.50933,-0.212759 1.6103,-0.449576 2.4466,-0.52626 1.44299,-0.132316 1.58085,-0.210022 2.703068,-1.523586 1.39444,-1.632214 2.54852,-2.246659 4.21977,-2.246659 1.73743,0 3.36199,0.86343 5.69082,3.02459 1.10842,1.028611 2.42979,2.185978 2.93638,2.571927 l 0.92108,0.701724 -0.79375,0.176369 c -0.43657,0.097 -2.14595,0.584899 -3.79864,1.084213 -3.23384,0.977017 -5.16806,1.129929 -6.57165,0.519528 z m 5.36792,-3.553127 c -0.2498,-0.276023 -0.97582,-0.63321 -1.61338,-0.79375 -1.22668,-0.308882 -6.14799,-0.403119 -6.85636,-0.131291 -1.010598,0.387801 -0.22576,0.538861 2.29346,0.441431 2.45877,-0.09509 4.12642,0.147673 6.5233,0.949619 0.0589,0.01972 -0.0972,-0.189986 -0.34702,-0.466009 z"
           id="path1-53-0"
           sodipodi:nodetypes="sssssscsssssscsssssscsssscsscsssssssscsscsssssccsssssssscssssscsssscsssssssccsssssssssssscsscssccsssssscscsssssscsssssssssssssssssssssssssssssscsssssssssssssssssssssssssssssscsscssccssssscsssssssssssssccssssssssssssssssssssssssssssssssssssssssssssssssssssssssscsssssssssssscsssccsccsscccsssscsssscsssssscsscscsssccccccssssscssscssssscsccssssssssccsscccsssscscscsscssscscscsssscssssssscsscccscccsssssssssccccssssscssssccssssssccssssssssssscccsssssccsssssscssssscscssscsccsscssssssssssscsssccscssccsssssccssssssscssssssssscsssssssssccssscsssssccsssssssssssssssscsssssssssssssssccccssssssssssssssssssssssssscsssssssss" />
        <path
           d="m 68.188309,134.63177 c -0.64718,0 -1.16784,0.52066 -1.16784,1.16783 0,0.64717 0.52066,1.16783 1.16784,1.16783 h 1.25055 l 1.68363,3.11423 h -7.26977 l -1.33327,-1.84907 c -0.21897,-0.30656 -0.57419,-0.4866 -0.94887,-0.4866 h -2.72494 c -0.64718,0 -1.16784,0.52066 -1.16784,1.16783 0,0.64718 0.52066,1.16784 1.16784,1.16784 h 2.12643 l 1.07538,1.49385 -1.29435,2.58383 c -0.4866,-0.12165 -0.99753,-0.1849 -1.51819,-0.1849 -3.44024,0 -6.22844,2.7882 -6.22844,6.22845 0,3.44023 2.7882,6.22844 6.22844,6.22844 3.17748,0 5.79538,-2.37946 6.17979,-5.44989 h 2.38433 c 0.41361,0 0.79315,-0.21897 1.00725,-0.57419 l 4.12635,-6.98267 1.05592,1.95126 c -1.4014,1.1435 -2.29674,2.88065 -2.29674,4.82705 0,3.44023 2.7882,6.22844 6.22845,6.22844 3.44024,0 6.22844,-2.78821 6.22844,-6.22844 0,-3.44025 -2.7882,-6.22845 -6.22844,-6.22845 -0.65691,0 -1.28949,0.10218 -1.88314,0.29195 l -4.76379,-8.81714 c -0.27249,-0.50606 -0.79802,-0.81748 -1.3722,-0.81748 z m 7.13352,13.22085 1.5717,2.90499 c 0.30656,0.56931 1.01699,0.77855 1.58145,0.47199 0.56445,-0.30655 0.77855,-1.01698 0.47199,-1.58144 l -1.57171,-2.90499 c 0.17518,-0.0292 0.36009,-0.0438 0.545,-0.0438 1.93665,0 3.5035,1.56685 3.5035,3.50351 0,1.93665 -1.56685,3.5035 -3.5035,3.5035 -1.93666,0 -3.50351,-1.56685 -3.50351,-3.5035 0,-0.90508 0.34062,-1.72743 0.90508,-2.35027 z m -15.83389,3.12882 h 3.16289 c -0.35522,1.56198 -1.75175,2.72495 -3.41592,2.72495 -1.93666,0 -3.5035,-1.56685 -3.5035,-3.5035 0,-1.93666 1.56684,-3.50351 3.5035,-3.50351 0.0827,0 0.16544,0.005 0.24817,0.01 l -1.17757,2.36 c -0.43794,0.88074 0.19951,1.91719 1.18243,1.91719 z m 1.63984,-2.33567 2.46705,-4.92923 3.54729,4.92437 -0.005,0.005 z m 4.40857,-6.22845 h 5.27958 l -2.38433,4.02903 -2.90012,-4.02903 z"
           id="path1-26-6"
           style="fill:#008000;fill-opacity:0.500595;stroke-width:0.0486598" />
        <path
           d="m 56.42504,100.29702 c 0,-0.914726 0.74371,-1.658446 1.65846,-1.658446 h 1.65847 0.82923 8.03578 c 0.54677,0 0.94325,0.52086 0.80072,1.0469 l -0.16843,0.611546 h -4.10729 c -0.22805,0 -0.41462,0.18658 -0.41462,0.41461 0,0.22805 0.18657,0.41463 0.41462,0.41463 h 3.88183 l -0.45348,1.65846 h -3.42835 c -0.22805,0 -0.41462,0.18657 -0.41462,0.41462 0,0.22804 0.18657,0.41461 0.41462,0.41461 h 3.2029 l -0.45348,1.65847 h -2.74942 c -0.22805,0 -0.41462,0.18657 -0.41462,0.41462 0,0.22803 0.18657,0.41461 0.41462,0.41461 h 2.52656 l -0.45349,1.65846 H 60.5712 l -0.22545,-2.48769 H 58.0835 c -0.91475,0 -1.65846,-0.74372 -1.65846,-1.65847 z m 3.77041,3.31693 -0.30319,-3.31693 H 58.0835 v 3.31693 z m -0.0389,4.97539 h 7.46309 c 0.68671,0 1.24385,0.55714 1.24385,1.24386 v 0.82923 c 0,0.6867 -0.55714,1.24384 -1.24385,1.24384 h -7.46309 c -0.6867,0 -1.24384,-0.55714 -1.24384,-1.24384 v -0.82923 c 0,-0.68672 0.55714,-1.24386 1.24384,-1.24386 z m 3.73155,2.4877 a 0.82923201,0.82923201 0 1 0 0,-1.65846 0.82923201,0.82923201 0 1 0 0,1.65846 z"
           id="path1-9-4"
           style="fill:#008000;fill-opacity:0.500595;stroke-width:0.0259134" />
        <path
           d="m 157.95765,95.36006 c 0.26003,0 0.47672,0.19002 0.55674,0.44005 0.41004,1.29016 1.62019,2.22694 3.05036,2.22694 1.43018,0 2.64032,-0.93678 3.05038,-2.22694 0.08,-0.25003 0.29669,-0.44005 0.55672,-0.44005 h 0.42006 c 0.75009,0 1.47351,0.26337 2.05025,0.74343 l 4.20717,3.50375 c 0.22003,0.18336 0.35671,0.45006 0.38005,0.73676 0.0233,0.2867 -0.07,0.57007 -0.26003,0.78676 l -1.8669,2.1336 c -0.38004,0.43671 -1.04012,0.48672 -1.48684,0.11668 l -1.71688,-1.43018 v 8.34435 c 0,1.17681 -0.95678,2.13359 -2.13359,2.13359 h -6.40077 c -1.17681,0 -2.13359,-0.95678 -2.13359,-2.13359 v -8.34435 l -1.71687,1.43018 c -0.44339,0.37004 -1.10348,0.32003 -1.48686,-0.11668 l -1.86688,-2.1336 c -0.19003,-0.21669 -0.28338,-0.50006 -0.26004,-0.78676 0.0233,-0.2867 0.16002,-0.5534 0.38005,-0.73676 l 4.20718,-3.50375 c 0.57673,-0.48006 1.30015,-0.74343 2.05024,-0.74343 z"
           id="path1-28-6"
           style="fill:#008000;fill-opacity:0.500595;stroke-width:0.0333373" />
        <path
           d="m 43.787707,98.386437 a 3.4757275,3.4757275 0 1 0 -6.951455,0 3.4757275,3.4757275 0 1 0 6.951455,0 z m 1.607524,1.158576 c -0.52498,2.320777 -2.603175,4.055017 -5.083252,4.055017 -2.878337,0 -5.213591,-2.33526 -5.213591,-5.213593 0,-2.878337 2.335254,-5.213591 5.213591,-5.213591 2.480077,0 4.558272,1.734243 5.083252,4.055015 h 2.599554 c 0.318609,-0.354813 0.782038,-0.579287 1.296157,-0.579287 h 3.765371 c 0.959446,0 1.737864,0.778418 1.737864,1.737863 0,0.959446 -0.778418,1.737863 -1.737864,1.737863 h -3.765371 c -0.514119,0 -0.977548,-0.224473 -1.296157,-0.579287 z m -5.083252,-3.475727 a 2.317152,2.317152 0 1 1 0,4.634304 2.317152,2.317152 0 1 1 0,-4.634304 z m 9.268606,5.792874 c 0.481534,0 0.868932,0.3874 0.868932,0.86894 v 0.28964 h 3.475728 c 0.481533,0 0.868932,0.3874 0.868932,0.86893 0,0.48154 -0.387399,0.86893 -0.868932,0.86893 h -8.689318 c -0.481534,0 -0.868932,-0.38739 -0.868932,-0.86893 0,-0.48153 0.387398,-0.86893 0.868932,-0.86893 h 3.475726 v -0.28964 c 0,-0.48154 0.387399,-0.86894 0.868932,-0.86894 z m -4.055014,8.11004 v -4.05502 h 8.110031 v 4.05502 c 0,0.95944 -0.77842,1.73786 -1.737864,1.73786 h -4.634304 c -0.959445,0 -1.737863,-0.77842 -1.737863,-1.73786 z m -8.689319,-5.2136 h 2.896439 0.579288 1.158576 c 0.959446,0 1.737864,0.77842 1.737864,1.73787 0,0.95944 -0.778418,1.73786 -1.737864,1.73786 h -0.579288 c 0,0.64084 -0.517738,1.15858 -1.158576,1.15858 H 37.41554 c -0.640838,0 -1.158576,-0.51774 -1.158576,-1.15858 v -2.89644 c 0,-0.31861 0.260679,-0.57929 0.579288,-0.57929 z m 4.634303,2.31716 c 0.318608,0 0.579288,-0.26068 0.579288,-0.57929 0,-0.31861 -0.26068,-0.57929 -0.579288,-0.57929 h -0.579288 v 1.15858 z m -5.503235,2.89644 h 6.372167 c 0.481533,0 0.868932,0.38739 0.868932,0.86893 0,0.48153 -0.387399,0.86893 -0.868932,0.86893 H 35.96732 c -0.481533,0 -0.868932,-0.3874 -0.868932,-0.86893 0,-0.48154 0.387399,-0.86893 0.868932,-0.86893 z"
           id="path1-6-2"
           style="fill:#008000;fill-opacity:0.500595;stroke-width:0.0362054" />
        <path
           d="m 122.59684,134.41212 c -0.30659,-0.23881 -0.74225,-0.20976 -1.01979,0.0645 l -1.29087,1.29087 c -0.27431,0.27431 -0.30335,0.70998 -0.0678,1.01979 l 2.58174,3.35625 c 0.14522,0.19041 0.37435,0.30336 0.61316,0.30336 h 1.7459 l 3.51762,3.51761 c -0.4744,0.93589 -0.32272,2.11057 0.46148,2.89155 l 3.61443,3.61443 c 0.4034,0.40339 1.05851,0.40339 1.46191,0 l 2.06539,-2.06539 c 0.40339,-0.40339 0.40339,-1.05851 0,-1.46191 l -3.61443,-3.61441 c -0.78098,-0.78098 -1.95567,-0.93588 -2.89155,-0.46148 l -3.51761,-3.51762 v -1.7459 c 0,-0.24204 -0.11295,-0.46794 -0.30335,-0.61316 z m -1.89435,12.62147 c -0.40985,0.40984 -0.64221,0.96814 -0.64221,1.54904 0,1.21018 0.98106,2.19125 2.19125,2.19125 0.58089,0 1.13919,-0.23236 1.54904,-0.64221 l 3.80161,-3.80161 c -0.25172,-0.67448 -0.29045,-1.40705 -0.11618,-2.10089 l -1.99116,-1.99116 z m 15.8809,-8.1357 c 0,-0.33886 -0.0355,-0.66803 -0.10327,-0.98429 -0.0774,-0.36144 -0.51957,-0.45503 -0.78097,-0.19363 l -2.06216,2.06216 c -0.0968,0.0968 -0.22913,0.15168 -0.36467,0.15168 l -1.8524,-0.003 c -0.28399,0 -0.51635,-0.23236 -0.51635,-0.51635 v -1.85239 c 0,-0.13555 0.0549,-0.26786 0.15168,-0.36467 l 2.06216,-2.06216 c 0.2614,-0.2614 0.16781,-0.70353 -0.19363,-0.78098 -0.31949,-0.0678 -0.64866,-0.10327 -0.98751,-0.10327 -2.5656,0 -4.64713,2.08153 -4.64713,4.64712 v 0.0258 l 2.75278,2.75278 c 1.16178,-0.29367 2.44619,0.0162 3.35626,0.9262 l 0.50666,0.50667 c 1.58131,-0.74225 2.67855,-2.34939 2.67855,-4.21146 z m -14.71589,9.29425 a 0.77452091,0.77452091 0 1 1 1.54904,0 0.77452091,0.77452091 0 1 1 -1.54904,0 z"
           id="path1-5-5"
           style="fill:#008000;fill-opacity:0.500595;stroke-width:0.0322716" />
        <path
           d="m 98.703477,85.250018 c 0,-2.51544 2.038683,-4.554121 4.554123,-4.554121 h 9.10824 c 2.51544,0 4.55412,2.038681 4.55412,4.554121 v 1.195457 c -1.29864,0.263284 -2.27706,1.412489 -2.27706,2.789398 v 1.707795 h -13.66236 v -1.707795 c 0,-1.376909 -0.97843,-2.526114 -2.277063,-2.789398 z m 17.077953,3.984855 c 0,-0.743602 0.47676,-1.376909 1.13853,-1.611731 0.1779,-0.06404 0.37002,-0.09606 0.56926,-0.09606 0.94285,0 1.7078,0.76495 1.7078,1.707795 v 6.261915 c 0,0.62975 -0.50878,1.138531 -1.13853,1.138531 h -1.13853 c -0.62975,0 -1.13853,-0.508781 -1.13853,-1.138531 H 99.842007 c 0,0.62975 -0.50878,1.138531 -1.13853,1.138531 h -1.13853 c -0.629749,0 -1.13853,-0.508781 -1.13853,-1.138531 v -6.261915 c 0,-0.942845 0.76495,-1.707795 1.707795,-1.707795 0.199243,0 0.39137,0.03558 0.569265,0.09606 0.661771,0.234822 1.13853,0.868129 1.13853,1.611731 v 1.707795 1.138531 h 1.138533 13.66236 1.13853 v -1.138531 z"
           id="path1-4-8"
           style="fill:#008000;fill-opacity:0.500595;stroke-width:0.035579" />
      </g>
      <path
         d="m 154.29957,120.934 v 9.8985 h 2.28427 v -9.3893 c 1.13738,0.65673 1.90356,1.88928 1.90356,3.29791 v 6.09139 h 2.28427 v -6.09139 c 0,-3.36453 -2.72684,-6.09138 -6.09139,-6.09138 h -3.04568 c -3.36455,0 -6.09139,2.72685 -6.09139,6.09138 v 6.09139 h 2.28427 v -6.09139 c 0,-1.40863 0.76618,-2.64118 1.90356,-3.29791 v 9.3893 h 2.28426 v -9.8985 z m -9.51779,11.42134 c -0.57582,0 -1.10405,0.32361 -1.36104,0.84233 l -0.76142,1.52285 c -0.23795,0.47112 -0.2094,1.03267 0.0666,1.48001 0.27602,0.44733 0.76618,0.72335 1.29441,0.72335 v 4.56854 c 0,0.84233 0.68053,1.52285 1.52286,1.52285 0.84232,0 1.52284,-0.68052 1.52284,-1.52285 v -4.56854 h 12.18277 v 4.56854 c 0,0.84233 0.68052,1.52285 1.52284,1.52285 0.84233,0 1.52285,-0.68052 1.52285,-1.52285 v -4.56854 c 0.52824,0 1.0184,-0.27125 1.29442,-0.72335 0.27601,-0.45209 0.30457,-1.00889 0.0666,-1.48001 l -0.76143,-1.52285 c -0.25698,-0.51872 -0.78521,-0.84233 -1.36104,-0.84233 z"
         id="path1-2-6"
         style="fill:#008000;fill-opacity:0.500595;stroke-width:0.0475889" />
      <path
         d="m 135.64842,61.690874 v 8.460298 H 123.56228 V 61.690874 Z M 123.56228,59.27364 c -1.33325,0 -2.41722,1.08398 -2.41722,2.417234 v 8.460298 c 0,1.33325 1.08397,2.41722 2.41722,2.41722 h 4.43033 l -0.40413,1.20862 h -2.81758 c -0.66852,0 -1.20862,0.54009 -1.20862,1.2086 0,0.66852 0.5401,1.20862 1.20862,1.20862 h 9.6689 c 0.66852,0 1.20862,-0.5401 1.20862,-1.20862 0,-0.66851 -0.5401,-1.2086 -1.20862,-1.2086 h -2.82135 l -0.40413,-1.20862 h 4.4341 c 1.33326,0 2.41723,-1.08397 2.41723,-2.41722 v -8.460298 c 0,-1.333254 -1.08397,-2.417234 -2.41723,-2.417234 z m 17.5249,0 c -1.00088,0 -1.81291,0.812038 -1.81291,1.812922 v 13.29475 c 0,1.00089 0.81203,1.81292 1.81291,1.81292 h 2.41723 c 1.00088,0 1.81292,-0.81203 1.81292,-1.81292 v -13.29475 c 0,-1.000884 -0.81204,-1.812922 -1.81292,-1.812922 z m 0.60431,2.417234 h 1.20861 c 0.33238,0 0.60431,0.271934 0.60431,0.604304 0,0.33237 -0.27193,0.604304 -0.60431,0.604304 h -1.20861 c -0.33238,0 -0.60431,-0.271934 -0.60431,-0.604304 0,-0.33237 0.27193,-0.604304 0.60431,-0.604304 z m -0.60431,3.02153 c 0,-0.332372 0.27193,-0.604305 0.60431,-0.604305 h 1.20861 c 0.33238,0 0.60431,0.271933 0.60431,0.604305 0,0.33237 -0.27193,0.604304 -0.60431,0.604304 h -1.20861 c -0.33238,0 -0.60431,-0.271934 -0.60431,-0.604304 z m 1.20862,6.043078 a 1.2086142,1.2086142 0 1 1 0,2.41722 1.2086142,1.2086142 0 1 1 0,-2.41722 z"
         id="path1-3-2"
         style="fill:#008000;fill-opacity:0.500595;stroke-width:0.0377691" />
      <path
         d="m 138.01524,45.748515 c -0.78571,0.261913 -1.60757,0.415447 -2.43844,0.454578 0.27696,-3.16998 -0.94829,-6.147288 -3.10676,-8.200408 3.20609,0.933232 5.55123,3.895493 5.55123,7.402651 0,0.114339 -0.003,0.228783 -0.006,0.343179 z m -0.11742,1.044615 c -0.1746,0.963343 -0.52983,1.866483 -1.02955,2.670256 -2.93518,1.460063 -6.5537,1.282445 -9.38952,-0.737562 0.71347,-1.089763 1.66777,-2.038052 2.84484,-2.763564 2.40534,1.300505 5.12075,1.529296 7.57423,0.83087 z m -7.1046,-1.670779 c -0.0753,-2.736473 -1.23728,-5.199008 -3.06763,-6.975153 0.8068,-0.292015 1.67982,-0.448562 2.58898,-0.448562 0.0813,0 0.15955,0 0.23781,0.0032 2.73347,1.812271 4.3862,5.033432 4.05505,8.498431 -1.29749,-0.07235 -2.60101,-0.424477 -3.81721,-1.08075 z m -4.03096,-6.55671 c 0.62015,0.550907 1.16504,1.1861 1.61661,1.884524 -2.884,1.345667 -4.84981,3.895501 -5.55123,6.788515 -0.14451,-0.587026 -0.21977,-1.201155 -0.21977,-1.833344 0,-2.974311 1.68585,-5.554246 4.15439,-6.839695 z m 2.09527,2.724432 c 0.58702,1.162032 0.93321,2.465548 0.97235,3.844312 -2.33007,1.432966 -3.88345,3.669724 -4.50661,6.141273 -0.72852,-0.620139 -1.34264,-1.372748 -1.80023,-2.221686 0.2017,-3.272343 2.16449,-6.318882 5.33147,-7.763899 z m 1.45704,11.821948 c -1.52629,0 -2.95023,-0.442528 -4.14838,-1.210184 0.16858,-0.812827 0.44555,-1.59855 0.82486,-2.339101 2.60703,1.821308 5.79508,2.248782 8.65197,1.411894 -1.3848,1.324579 -3.26029,2.137391 -5.32845,2.137391 z"
         id="path1-1-8"
         style="fill:#008000;fill-opacity:0.500595;stroke-width:0.0301043"
         inkscape:transform-center-x="0.21757675"
         inkscape:transform-center-y="2.4177943" />
      <path
         d="m 108.34054,31.22763 c 0,-0.36084 -0.2275,-0.67856 -0.51776,-0.89428 -0.45497,-0.34123 -0.73739,-0.81191 -0.73739,-1.33357 0,-1.03942 1.12571,-1.88271 2.51027,-1.88271 1.38457,0 2.51027,0.84329 2.51027,1.88271 0,0.52166 -0.28242,0.99234 -0.73739,1.33357 -0.29026,0.21572 -0.51775,0.53344 -0.51775,0.89428 0,0.50206 0.40793,0.90996 0.90998,0.90996 h 2.22785 c 1.03942,0 1.88271,0.84329 1.88271,1.88271 v 2.22785 c 0,0.50206 0.40791,0.90997 0.90996,0.90997 0.36085,0 0.67856,-0.22748 0.89428,-0.51774 0.34124,-0.45497 0.81191,-0.73739 1.33358,-0.73739 1.03942,0 1.8827,1.12571 1.8827,2.51027 0,1.38457 -0.84328,2.51026 -1.8827,2.51026 -0.52167,0 -0.99234,-0.2824 -1.33358,-0.7374 -0.21572,-0.29024 -0.53343,-0.51773 -0.89428,-0.51773 -0.50205,0 -0.90996,0.40793 -0.90996,0.90998 v 4.73811 c 0,1.0394 -0.84329,1.8827 -1.88271,1.8827 h -2.22785 c -0.50205,0 -0.90998,-0.40792 -0.90998,-0.90998 0,-0.36084 0.22749,-0.67855 0.51775,-0.89428 0.45497,-0.34123 0.73739,-0.8119 0.73739,-1.33357 0,-1.0394 -1.1257,-1.88269 -2.51027,-1.88269 -1.38456,0 -2.51027,0.84329 -2.51027,1.88269 0,0.52167 0.28242,0.99234 0.73739,1.33357 0.29026,0.21573 0.51776,0.53344 0.51776,0.89428 0,0.50206 -0.40793,0.90998 -0.90999,0.90998 h -4.7381 c -1.03942,0 -1.88271,-0.8433 -1.88271,-1.8827 v -4.73811 c 0,-0.50205 0.40793,-0.90998 0.90998,-0.90998 0.36085,0 0.67856,0.22749 0.89428,0.51773 0.34124,0.455 0.81191,0.7374 1.33357,0.7374 1.03941,0 1.88269,-1.12569 1.88269,-2.51026 0,-1.38456 -0.84328,-2.51027 -1.88269,-2.51027 -0.52166,0 -0.99233,0.28242 -1.33357,0.73739 -0.21572,0.29026 -0.53343,0.51774 -0.89428,0.51774 -0.50205,0 -0.90998,-0.40791 -0.90998,-0.90997 V 34.0203 c 0,-1.03942 0.84329,-1.88271 1.88271,-1.88271 h 4.7381 c 0.50206,0 0.90999,-0.4079 0.90999,-0.90996 z"
         id="path1-8-4"
         style="fill:#008000;fill-opacity:0.500595;stroke-width:0.0392229" />
      <path
         d="m 57.239613,68.368983 a 7.8673769,7.8673769 0 1 1 15.73475,0 7.8673769,7.8673769 0 1 1 -15.73475,0 z m 7.86738,0.983424 a 0.98342414,0.98342414 0 1 1 0,-1.966848 0.98342414,0.98342414 0 1 1 0,1.966848 z m -2.95028,-0.983424 a 2.95027,2.95027 0 1 0 5.90054,0 2.95027,2.95027 0 1 0 -5.90054,0 z m -1.96684,-0.491712 c 0,-1.075615 0.53781,-2.185037 1.38909,-3.036315 0.85128,-0.851278 1.9607,-1.389086 3.03631,-1.389086 0.27045,0 0.49172,-0.221263 0.49172,-0.491712 0,-0.270432 -0.22127,-0.491704 -0.49172,-0.491704 -1.39523,0 -2.74128,0.685325 -3.73392,1.674881 -0.99265,0.989572 -1.67489,2.33871 -1.67489,3.733936 0,0.270441 0.22126,0.491712 0.4917,0.491712 0.27044,0 0.49171,-0.221271 0.49171,-0.491712 z"
         id="path1-36-7"
         style="fill:#008000;fill-opacity:0.500595;stroke-width:0.0307319" />
      <path
         d="m 79.537155,37.194552 c -1.927696,0 -3.491676,1.56398 -3.491676,3.491676 v 11.638919 c 0,1.927695 1.56398,3.491676 3.491676,3.491676 h 10.475026 1.163893 c 0.643777,0 1.163891,-0.520115 1.163891,-1.163892 0,-0.643779 -0.520114,-1.163893 -1.163891,-1.163893 v -2.327783 c 0.643777,0 1.163891,-0.520114 1.163891,-1.163891 v -11.63892 c 0,-0.643778 -0.520114,-1.163892 -1.163891,-1.163892 h -1.163893 z m 0,13.966703 h 9.311134 v 2.327783 h -9.311134 c -0.643778,0 -1.163892,-0.520114 -1.163892,-1.163891 0,-0.643778 0.520114,-1.163892 1.163892,-1.163892 z m 1.163891,-8.72919 c 0,-0.320069 0.261876,-0.581945 0.581946,-0.581945 h 6.983352 c 0.320069,0 0.581945,0.261876 0.581945,0.581945 0,0.320072 -0.261876,0.581947 -0.581945,0.581947 h -6.983352 c -0.32007,0 -0.581946,-0.261875 -0.581946,-0.581947 z m 0.581946,1.745838 h 6.983352 c 0.320069,0 0.581945,0.261876 0.581945,0.581947 0,0.32007 -0.261876,0.581946 -0.581945,0.581946 h -6.983352 c -0.32007,0 -0.581946,-0.261876 -0.581946,-0.581946 0,-0.320071 0.261876,-0.581947 0.581946,-0.581947 z"
         id="path1-32-2"
         style="fill:#008000;fill-opacity:0.500595;stroke-width:0.0363716" />
    </g>
  </g>
</svg>
