<svg xmlns="http://www.w3.org/2000/svg" xmlns:xlink="http://www.w3.org/1999/xlink" viewBox="0 0 142.25 140.58"><defs><radialGradient id="b241b2aa-6f97-460e-bf01-0e9972381701" cx="-222.4" cy="486.76" r="1.96" gradientTransform="matrix(78.97, 0, 0, -78.96, 17633.33, 38447.13)" gradientUnits="userSpaceOnUse"><stop offset="0.02" stop-color="#66a5dc"></stop><stop offset="0.81" stop-color="#005b92"></stop></radialGradient><radialGradient id="ea3a010a-2ba7-4978-a091-d77e3f5dde89" cx="-210.03" cy="478.12" r="8.47" gradientTransform="matrix(18.3, 0, 0, -18.3, 3912.29, 8762.98)" xlink:href="#b241b2aa-6f97-460e-bf01-0e9972381701"></radialGradient><radialGradient id="e142304b-5275-4d37-8a3f-fc50efd663f0" cx="-207.93" cy="474.74" r="10.88" gradientTransform="matrix(14.25, 0, 0, -14.25, 3032.75, 6776.56)" xlink:href="#b241b2aa-6f97-460e-bf01-0e9972381701"></radialGradient><radialGradient id="a7d7b3df-f392-496a-a2ce-050b27449b45" cx="-201.19" cy="474.09" r="11.32" gradientTransform="matrix(13.69, 0, 0, -13.68, 2820.96, 6498.46)" xlink:href="#b241b2aa-6f97-460e-bf01-0e9972381701"></radialGradient><radialGradient id="a86e356d-2e2b-4559-8d81-54938e720f89" cx="-209.14" cy="474.46" r="11.06" gradientTransform="matrix(14.01, 0, 0, -14.01, 2999, 6657.85)" xlink:href="#b241b2aa-6f97-460e-bf01-0e9972381701"></radialGradient><radialGradient id="a5edf268-c9f5-4ef3-a0f4-7e18db9332d6" cx="-211.04" cy="474.74" r="10.88" gradientTransform="matrix(13.88, 0, 0, -14.25, 2998.92, 6775.76)" xlink:href="#b241b2aa-6f97-460e-bf01-0e9972381701"></radialGradient><radialGradient id="a358e6c3-4ba4-440a-a363-c79c3c711dd2" cx="-212.45" cy="474.46" r="11.06" gradientTransform="matrix(14.01, 0, 0, -14.01, 3045.34, 6657.81)" xlink:href="#b241b2aa-6f97-460e-bf01-0e9972381701"></radialGradient><radialGradient id="ed66a71d-2894-47f1-bcc4-c08819be0369" cx="-216.58" cy="478.12" r="8.62" gradientTransform="matrix(17.97, 0, 0, -17.99, 3960.4, 8613.18)" xlink:href="#b241b2aa-6f97-460e-bf01-0e9972381701"></radialGradient><radialGradient id="a9dbc2c7-babc-439a-9cb3-8bab4c66af95" cx="-214.91" cy="474.73" r="10.88" gradientTransform="matrix(14.25, 0, 0, -14.24, 3132.13, 6773.32)" xlink:href="#b241b2aa-6f97-460e-bf01-0e9972381701"></radialGradient><radialGradient id="ad885ee3-440b-4aef-8f4f-5c400037284a" cx="-157.62" cy="422.7" r="44.82" gradientTransform="matrix(3.46, 0, 0, -3.46, 614.58, 1472.72)" xlink:href="#b241b2aa-6f97-460e-bf01-0e9972381701"></radialGradient><radialGradient id="fc6d0f3e-d179-4927-a2ce-a8127b63204a" cx="-212.38" cy="477.21" r="9.11" gradientTransform="matrix(17.01, 0, 0, -17.01, 3681.83, 8129.4)" xlink:href="#b241b2aa-6f97-460e-bf01-0e9972381701"></radialGradient><radialGradient id="b108f0b0-fd55-4f77-8835-0a02031ba61e" cx="-197.03" cy="461.3" r="18.83" gradientTransform="matrix(8.23, 0, 0, -8.23, 1690.47, 3807.11)" xlink:href="#b241b2aa-6f97-460e-bf01-0e9972381701"></radialGradient><radialGradient id="a78c700d-2443-4e2f-9a9f-53fecc830958" cx="-192.33" cy="454.46" r="23.34" gradientTransform="matrix(6.64, 0, 0, -6.64, 1347.16, 3028.5)" xlink:href="#b241b2aa-6f97-460e-bf01-0e9972381701"></radialGradient><radialGradient id="ee9aaddc-27c3-4f11-8204-283d95e94426" cx="-194.09" cy="454.4" r="23.45" gradientTransform="matrix(6.61, 0, 0, -6.62, 1351.55, 3019.98)" xlink:href="#b241b2aa-6f97-460e-bf01-0e9972381701"></radialGradient><radialGradient id="b9731a06-52ed-4f81-89cb-374f5d790b5a" cx="-202.6" cy="462.37" r="18.14" gradientTransform="matrix(8.55, 0, 0, -8.54, 1801.78, 3960.3)" xlink:href="#b241b2aa-6f97-460e-bf01-0e9972381701"></radialGradient><radialGradient id="a3466fc5-823c-429f-ae18-cf362f9ab56e" cx="-197" cy="454.47" r="23.34" gradientTransform="matrix(6.62, 0, 0, -6.64, 1373.68, 3029.42)" xlink:href="#b241b2aa-6f97-460e-bf01-0e9972381701"></radialGradient><radialGradient id="a8cb69a9-05b3-4c87-af29-b6a33601e2e5" cx="-199.27" cy="461.56" r="18.83" gradientTransform="matrix(8.23, 0, 0, -8.24, 1708.72, 3812.53)" xlink:href="#b241b2aa-6f97-460e-bf01-0e9972381701"></radialGradient><radialGradient id="ac5a89e9-0dc7-49a4-a7e2-0f0ae8a8d14d" cx="-214.28" cy="480.13" r="5.02" gradientTransform="matrix(21.39, 0, 0, -21.39, 4662.64, 10300.23)" gradientUnits="userSpaceOnUse"><stop offset="0.29" stop-color="#91b408"></stop><stop offset="0.8" stop-color="#46a361"></stop></radialGradient><radialGradient id="ba5776f8-ea2b-4b72-9919-5c6adb9530af" cx="-211.63" cy="474.15" r="6.17" gradientTransform="matrix(14.03, 0, 0, -14.04, 3044.91, 6692.33)" xlink:href="#ac5a89e9-0dc7-49a4-a7e2-0f0ae8a8d14d"></radialGradient><radialGradient id="bf5b7008-0631-4046-8ca6-056764c876f2" cx="-213.16" cy="473.73" r="6.35" gradientTransform="matrix(13.59, 0, 0, -13.65, 2964.75, 6504.96)" xlink:href="#ac5a89e9-0dc7-49a4-a7e2-0f0ae8a8d14d"></radialGradient><radialGradient id="bb67b70f-eb1a-45b4-9a53-4b55c68205e4" cx="-214.32" cy="474.15" r="6.17" gradientTransform="matrix(14.05, 0, 0, -14.04, 3085.23, 6692.02)" xlink:href="#ac5a89e9-0dc7-49a4-a7e2-0f0ae8a8d14d"></radialGradient><radialGradient id="b2bfa81a-2a89-416a-a639-06e960f251a0" cx="-216.03" cy="473.82" r="6.3" gradientTransform="matrix(13.75, 0, 0, -13.74, 3032.31, 6548.71)" xlink:href="#ac5a89e9-0dc7-49a4-a7e2-0f0ae8a8d14d"></radialGradient><radialGradient id="af69069a-5f72-40f2-8799-6f6b9ae5d6b8" cx="-210.62" cy="474.09" r="6.2" gradientTransform="matrix(13.97, 0, 0, -13.97, 3010.59, 6658.94)" xlink:href="#ac5a89e9-0dc7-49a4-a7e2-0f0ae8a8d14d"></radialGradient><radialGradient id="b07b6787-5a9e-4cc5-9a1b-e9e7c132b37c" cx="-223.5" cy="486.92" r="0.98" gradientTransform="matrix(88.49, 0, 0, -88.52, 19826.99, 43137.68)" xlink:href="#ac5a89e9-0dc7-49a4-a7e2-0f0ae8a8d14d"></radialGradient></defs><g id="b2bb82d0-5d38-42bc-bbfa-83b2dec9dc09" data-name="Calque 2"><g id="a8dcde13-e52a-4963-8534-0c616ce34182" data-name="Calque 1"><g id="bf964659-5ca7-4361-ad21-63dccf61c774" data-name="Illustration 1-2"><path id="fd633a7e-71f7-440a-87d4-c9f615dea9b4" data-name="Trac&#xE9; 98" d="M79.54,10a32.93,32.93,0,0,0-8.47-6.26A31.61,31.61,0,0,0,62.6,10c-1.66,1.62-4.22,4.66-4.46,5h0a23.21,23.21,0,0,1,11.44,4.7,2.49,2.49,0,0,0,2.94,0A23,23,0,0,1,84,15,38.32,38.32,0,0,0,79.54,10Z" style="fill:#ffdf00"></path><g id="a02744e2-9db3-45d2-86ed-b53840729821" data-name="Groupe 15"><path id="b63f02cc-6414-417a-9edf-040911d580fb" data-name="Trac&#xE9; 99" d="M54.3,64.1a24.39,24.39,0,0,1-11.41-3.25,9.88,9.88,0,0,0-12.51,2.42L26.61,67.9A39.94,39.94,0,0,0,53.92,79C71.48,79,81.68,68,81.68,55.39c0-10.76-5.63-17-14.62-20.75l-9.4-3.94c-6.43-2.66-11.27-4.35-11.27-9s3.66-6.81,9.4-6.81a19.38,19.38,0,0,1,2.28.14l4.49-5A32.56,32.56,0,0,1,71,3.77,33.55,33.55,0,0,0,55.79,0C40.44,0,29.55,10,29.55,22.65c0,11.06,7.22,17.56,14.86,20.77L54,47.68C60.42,50.41,64.6,52,64.6,56.77S61.25,64.1,54.3,64.1Z" style="fill:url(#b241b2aa-6f97-460e-bf01-0e9972381701)"></path><path id="b481708b-cd1d-4978-b57b-1e3235120541" data-name="Trac&#xE9; 100" d="M7.59,105.51c-1.76-.41-3-.83-3-2s1.77-1.69,2.7-1.69a9.38,9.38,0,0,1,5.08,1.42l1.39-2.94a11.22,11.22,0,0,0-6.5-1.9c-3.39,0-6.6,1.69-6.6,5.11s3.42,4.81,6.74,5.57c1.56.38,3.15.73,3.15,2.11s-1.8,2.07-3.29,2.07a9.25,9.25,0,0,1-3.49-.62A2.84,2.84,0,0,0,.1,114.09l-.1.21a10.45,10.45,0,0,0,7.23,2.42c3.56,0,7.29-1.66,7.29-5.5S10.74,106.24,7.59,105.51Z" style="fill:url(#ea3a010a-2ba7-4978-a091-d77e3f5dde89)"></path><path id="e9ef9d66-4bad-47ed-aad3-6362a68d30f7" data-name="Trac&#xE9; 101" d="M26.61,104.41a5.32,5.32,0,0,0-4.25-1.94c-3.77,0-6.19,3.18-6.19,7.12s2.42,7.13,6.19,7.13a5.22,5.22,0,0,0,4.25-1.9v1.65h3.6V102.75h-3.6Zm-3.35,8.88a3.75,3.75,0,0,1,0-7.46c2,0,3.25,1.59,3.25,3.73s-1.35,3.77-3.22,3.77Z" style="fill:url(#e142304b-5275-4d37-8a3f-fc50efd663f0)"></path><rect id="b99bff91-fad4-4ddf-9259-c527ceff8008" data-name="Rectangle 20" x="33" y="102.75" width="3.66" height="13.68" style="fill:url(#a7d7b3df-f392-496a-a2ce-050b27449b45)"></rect><path id="b644448e-10b8-450c-9df1-4eb7fc0005a6" data-name="Trac&#xE9; 102" d="M47.35,102.47A5.11,5.11,0,0,0,43,104.58v-1.83H39.47v13.69h3.66v-6.91c0-2.08,1.25-3.56,3.08-3.56S48.6,107,48.6,109v7.44h3.66v-7.92C52.23,104.79,51,102.47,47.35,102.47Z" style="fill:url(#a86e356d-2e2b-4559-8d81-54938e720f89)"></path><path id="e46cdd43-58f0-469d-b198-056a2e930e77" data-name="Trac&#xE9; 103" d="M72.07,102.47a7.26,7.26,0,1,0,.15,0Zm0,10.86a3.74,3.74,0,1,1,3.6-3.87v.13a3.55,3.55,0,0,1-3.39,3.73Z" style="fill:url(#a5edf268-c9f5-4ef3-a0f4-7e18db9332d6)"></path><path id="b184ce44-2f06-4448-b38a-82b37632b8ed" data-name="Trac&#xE9; 104" d="M89.7,102.47a5.09,5.09,0,0,0-4.31,2.11v-1.83h-3.6v13.69h3.66v-6.92c0-2.07,1.25-3.56,3.08-3.56S90.91,107,90.91,109v7.44h3.67v-7.92C94.58,104.79,93.33,102.47,89.7,102.47Z" style="fill:url(#a358e6c3-4ba4-440a-a363-c79c3c711dd2)"></path><path id="bbe08923-b95b-4cf9-92ed-186a0d317336" data-name="Trac&#xE9; 105" d="M107.27,104.62a4.87,4.87,0,0,0-4.29-2.15c-3.8,0-6.19,3-6.19,6.64s2.39,6.6,6.19,6.6a4.64,4.64,0,0,0,4.11-2,.82.82,0,0,1,0,.31,3.63,3.63,0,0,1-3.48,3.75h-.46a6.81,6.81,0,0,1-4-1.25l-1.38,2.28a8.94,8.94,0,0,0,5.7,1.7c4.53,0,7.26-2.84,7.26-7.33V102.75h-3.46Zm-3.5,7.88a3.24,3.24,0,0,1-3.28-3.21v-.18a3.3,3.3,0,1,1,6.6-.1,3.26,3.26,0,0,1-3,3.48Z" style="fill:url(#ed66a71d-2894-47f1-bcc4-c08819be0369)"></path><path id="f03eea7e-e68c-4fa3-ba68-d0fdc713f117" data-name="Trac&#xE9; 106" d="M126.83,109.53a6.84,6.84,0,0,0-6.63-7.06h0a7,7,0,0,0-7.09,7v.17c0,4.53,3.49,7.13,7.5,7.13a9.25,9.25,0,0,0,5.08-1.52l-1.38-2.63a6.82,6.82,0,0,1-3.7,1.07,3.63,3.63,0,0,1-3.8-2.8h9.92a11.73,11.73,0,0,0,.1-1.31Zm-10.06-1.11a3.43,3.43,0,0,1,3.32-2.87,3.3,3.3,0,0,1,3.32,2.87Z" style="fill:url(#a9dbc2c7-babc-439a-9cb3-8bab4c66af95)"></path><path id="bd1a88bf-07d2-468e-a6e3-e0cb3da11d19" data-name="Trac&#xE9; 107" d="M33.11,99.6a1.73,1.73,0,1,0,1.73-1.73,1.72,1.72,0,0,0-1.73,1.73Z" style="fill:url(#ad885ee3-440b-4aef-8f4f-5c400037284a)"></path><path id="acd7fefd-b090-4ab1-ab93-badc5af47251" data-name="Trac&#xE9; 108" d="M60.66,113.54c-.65,0-1.24-.38-1.24-1.56v-6.26h3.76v-2.94H59.45V99.67a4.21,4.21,0,0,1-3.66,1.8h0v1.28h-2v2.94h2V112c0,3.07,1.49,4.66,4.22,4.66a6.28,6.28,0,0,0,3.49-1l-1-2.7a3.39,3.39,0,0,1-1.8.59Z" style="fill:url(#fc6d0f3e-d179-4927-a2ce-a8127b63204a)"></path><path id="bb76891e-e45d-48e5-a275-5f0219da1507" data-name="Trac&#xE9; 109" d="M40.27,89.75V98H42V96.11H43.1c2.42,0,3.7-1.42,3.7-3.18s-1.28-3.18-3.7-3.18Zm4.66,3.18a1.62,1.62,0,0,1-1.58,1.66H42.07V91.27h1.17a1.62,1.62,0,0,1,1.69,1.56.17.17,0,0,1,0,.1Z" style="fill:url(#b108f0b0-fd55-4f77-8835-0a02031ba61e)"></path><path id="a2492886-215d-4e2a-beea-3523907292d5" data-name="Trac&#xE9; 110" d="M53.82,98V91.65H52.16v.76a2.53,2.53,0,0,0-2-.9c-1.77,0-2.87,1.49-2.87,3.32s1.1,3.32,2.87,3.32a2.46,2.46,0,0,0,2-.9V98ZM50.6,96.53A1.63,1.63,0,0,1,49,94.88V94.8a1.61,1.61,0,0,1,1.47-1.73h.12a1.55,1.55,0,0,1,1.53,1.57.92.92,0,0,1,0,.16,1.57,1.57,0,0,1-1.4,1.72Z" style="fill:url(#a78c700d-2443-4e2f-9a9f-53fecc830958)"></path><path id="a0e65495-cd43-456b-90ff-0c8816d21b1c" data-name="Trac&#xE9; 111" d="M67,96c0-1.28-1.18-1.76-2.25-2s-1.1-.24-1.1-.59S64,93,64.4,93a4,4,0,0,1,1.76.45l.59-1.28a4.32,4.32,0,0,0-2.35-.62A2.21,2.21,0,0,0,62,93.48v0c0,1.28,1,1.62,2.28,2,.56.14,1.11.24,1.11.62s-.66.52-1,.52a3.06,3.06,0,0,1-2-.66l-.62,1.32a3.86,3.86,0,0,0,2.59.86C65.4,98.12,67,97.6,67,96Z" style="fill:url(#ee9aaddc-27c3-4f11-8204-283d95e94426)"></path><path id="b4100ffc-90d4-410d-9de6-0e9d879c085b" data-name="Trac&#xE9; 112" d="M77.12,98V89.65H75.43v2.73a2.48,2.48,0,0,0-1.9-.83,3,3,0,0,0-2.92,3.14c0,.06,0,.12,0,.18,0,1.83,1.1,3.32,2.86,3.32a2.52,2.52,0,0,0,2-.9v.76ZM73.9,96.53a1.63,1.63,0,0,1-1.59-1.65V94.8a1.61,1.61,0,0,1,1.47-1.73h.12a1.55,1.55,0,0,1,1.54,1.57s0,.1,0,.16A1.58,1.58,0,0,1,74,96.52Z" style="fill:url(#b9731a06-52ed-4f81-89cb-374f5d790b5a)"></path><path id="e30055a4-7ead-432c-b4d5-794014e397a2" data-name="Trac&#xE9; 113" d="M83.45,96.18a3.21,3.21,0,0,1-1.73.48A1.7,1.7,0,0,1,80,95.38h4.6a4.21,4.21,0,0,0,0-.62,3.18,3.18,0,0,0-3.08-3.28h0a3.32,3.32,0,1,0,.11,6.64h.1a4.28,4.28,0,0,0,2.35-.7Zm-2-3.25A1.52,1.52,0,0,1,83,94.28H79.92A1.6,1.6,0,0,1,81.47,92.93Z" style="fill:url(#a3466fc5-823c-429f-ae18-cf362f9ab56e)"></path><path id="ed116a8d-d3ef-4520-91d8-a14b87a66c96" data-name="Trac&#xE9; 114" d="M55.79,98.29v1.55a2.6,2.6,0,0,0,2.66-1.69l2.83-6.53H59.59l-1.14,2.94L58,95.66l-.41-1.07-1.28-3H54.61l2.66,5.63-.13.28A1.28,1.28,0,0,1,55.79,98.29Z" style="fill:url(#a8cb69a9-05b3-4c87-af29-b6a33601e2e5)"></path></g><g id="b0f5605c-2ab4-42be-a032-bf819410d704" data-name="Groupe 16"><path id="fb8a3973-4bda-4491-a94b-16c153e257cf" data-name="Trac&#xE9; 115" d="M55.68,138.57a2,2,0,0,1-1,.13c-.57,0-1.08-.9-1.52-2.55l-.72-2.63a4.91,4.91,0,0,0-4.74-3.91v-.07a9.67,9.67,0,0,0,5.15-1.45A4.43,4.43,0,0,0,54.22,122a4.36,4.36,0,0,0-1.86-1.62,9.11,9.11,0,0,0-5.08-1.15H39.54v18.19a1.4,1.4,0,0,1-.38,1.14,2.19,2.19,0,0,1-1.32.31H37v1.32h8.5v-1.32h-.86a2.19,2.19,0,0,1-1.32-.31,1.4,1.4,0,0,1-.38-1.14v-7.53h1.73c1.8,0,3.05.45,3.74,1.35a7.89,7.89,0,0,1,1.24,4.25c.3,3.36,1.53,5.07,3.7,5.11a3.86,3.86,0,0,0,2.42-.72,2.75,2.75,0,0,0,1-1.52l-.35-.24a1.24,1.24,0,0,1-.72.48Zm-12.79-10v-8.09h2q4.32,0,5.36.86a4.78,4.78,0,0,1-.24,6.23c-.86.62-2.42,1-4.7,1Z" style="fill:url(#ac5a89e9-0dc7-49a4-a7e2-0f0ae8a8d14d)"></path><path id="ac0f7c94-e01c-47a1-8840-79fe8b29fd6e" data-name="Trac&#xE9; 116" d="M94.23,135v-6.78a4.51,4.51,0,0,0-1.52-3.45,4.37,4.37,0,0,0-3-1.25,5.61,5.61,0,0,0-4.81,3,3.69,3.69,0,0,0-1.45-2.11,4.71,4.71,0,0,0-2.83-.87,5,5,0,0,0-4.43,2.9h-.07V124H73.24v11.06a1.26,1.26,0,0,1-.38,1,2,2,0,0,1-1.31.31h-.17v1.18h4.67V130a5.63,5.63,0,0,1,1.07-3.53,2.74,2.74,0,0,1,2.18-1.24,2.88,2.88,0,0,1,2.14.8,3,3,0,0,1,.8,2.21V135c0,.9-.47,1.35-1.42,1.35h-.2v1.17h4.46v-8.85a3.22,3.22,0,0,1,1-2.48,3.4,3.4,0,0,1,2.45-1,2.52,2.52,0,0,1,2.73,2.3,2.67,2.67,0,0,1,0,.4v9.57h4.36v-1.17h-.1Q94.23,136.39,94.23,135Z" style="fill:url(#ba5776f8-ea2b-4b72-9919-5c6adb9530af)"></path><path id="af1dd445-ebe6-45e3-82e6-6d52c6bed35b" data-name="Trac&#xE9; 117" d="M109.2,134.62V128.3a3.82,3.82,0,0,0-1.28-3.22,6.68,6.68,0,0,0-4.11-1,7.7,7.7,0,0,0-4,.94l.83.86a5.72,5.72,0,0,1,2.7-.52,3.69,3.69,0,0,1,2.42.59,2.39,2.39,0,0,1,.73,2v1.49a20.54,20.54,0,0,0-6.74,1.8q-2.38,1.24-2.46,3.21A2.92,2.92,0,0,0,98.56,137a4.8,4.8,0,0,0,2.83.76,6.62,6.62,0,0,0,5.25-2.22v2.07h4.26v-1.38C109.77,136.18,109.2,135.66,109.2,134.62Zm-2.7-1.93a3.3,3.3,0,0,1-1.28,2.66,4,4,0,0,1-2.62,1,2.71,2.71,0,0,1-1.73-.59,1.89,1.89,0,0,1-.73-1.56,2.57,2.57,0,0,1,1.28-2.35,13.82,13.82,0,0,1,5.08-1.34Z" style="fill:url(#bf5b7008-0631-4046-8ca6-056764c876f2)"></path><path id="e7d92185-dfb1-4683-9a42-979bc2e445f4" data-name="Trac&#xE9; 118" d="M127,135v-6.26a5.39,5.39,0,0,0-1.35-3.73,4.65,4.65,0,0,0-3.63-1.49,5.23,5.23,0,0,0-4.7,2.9V124h-2.83v11.06a1.21,1.21,0,0,1-1,1.35,1.29,1.29,0,0,1-.34,0h-.32v1.17h4.53V130a5.24,5.24,0,0,1,1.14-3.53,3.53,3.53,0,0,1,2.73-1.24,2.9,2.9,0,0,1,2.15.8,3,3,0,0,1,.8,2.21v9.27h4.53v-1.18h-.32a1.15,1.15,0,0,1-1.34-.93A1,1,0,0,1,127,135Z" style="fill:url(#bb67b70f-eb1a-45b4-9a53-4b55c68205e4)"></path><path id="f04557a3-33a1-4a92-9729-5114b230ce5a" data-name="Trac&#xE9; 119" d="M136.76,136.25a3.91,3.91,0,0,1-3-1.25,5.18,5.18,0,0,1-1.24-3.66V131h9.71a8.77,8.77,0,0,0-1.73-5.12,5,5,0,0,0-4.11-2,6.6,6.6,0,0,0-5,1.9,7.43,7.43,0,0,0-1.83,5.39,6.21,6.21,0,0,0,1.83,4.66,6.5,6.5,0,0,0,4.87,1.77,6,6,0,0,0,4.15-1.42l-.73-1a4.42,4.42,0,0,1-2.93,1Zm-3.84-8.85a3.24,3.24,0,0,1,3.21-2.39,2.77,2.77,0,0,1,2.9,2.39,8.59,8.59,0,0,1,.25,2.42H132.5a8.31,8.31,0,0,1,.42-2.42Z" style="fill:url(#b2bfa81a-2a89-416a-a639-06e960f251a0)"></path><path id="bbf1d995-9919-4964-b7e1-4539fbc2c340" data-name="Trac&#xE9; 120" d="M64,123.8a7,7,0,1,0,7,7,7,7,0,0,0-7-7Zm0,12.41c-2.14,0-3.91-2.42-3.91-5.42s1.73-5.43,3.91-5.43,3.91,2.42,3.91,5.43S66.13,136.21,64,136.21Z" style="fill:url(#af69069a-5f72-40f2-8799-6f6b9ae5d6b8)"></path><path id="fe12ee93-ca24-4e0b-b4ee-2c66dc253aa8" data-name="Trac&#xE9; 121" d="M125.62,78.93l-1.38-1a5.32,5.32,0,0,1-3,2.14,8.34,8.34,0,0,1-4,.63c-2.39-.25-3.94-3.94-7.57-10.62h0L96.82,46.22a1.91,1.91,0,0,1,.73-2.59l.14-.07c7.64-3.18,14.86-9.68,14.86-20.74C112.55,10.2,101.63.1,86.32.07A33.55,33.55,0,0,0,71.07,3.8a32.93,32.93,0,0,1,8.47,6.26,35.35,35.35,0,0,1,4.46,5c.77-.07,1.54-.1,2.31-.1,5.74,0,9.4,2.49,9.4,6.85s-3.94,7.71-10.37,10.34L78.53,35c-1.69.72-3,1.72-1.59,3C81.78,42.35,84,48.23,84,55.49v.14L96.79,80.49A14.92,14.92,0,0,0,110,88.58h1.14a16.5,16.5,0,0,0,10.16-3.11A11.75,11.75,0,0,0,125.62,78.93Z" style="fill:url(#b07b6787-5a9e-4cc5-9a1b-e9e7c132b37c)"></path></g></g></g></g></svg>